<svg version="1" xmlns="http://www.w3.org/2000/svg" width="1365.333" height="1365.333" viewBox="0 0 1024.000000 1024.000000"><path d="M505 43.2c-3 .5-8.4 2.2-11.9 4-5.9 2.8-14.8 11.5-95.7 92.3-49 49.1-90.3 91-91.8 93.3-13.5 21.4-5.5 50.6 16.9 61.1 13.1 6.2 25.3 6.2 38.5-.2 5.2-2.5 11.2-8.3 66.5-63.6C450 207.5 468.7 189 469 189c.3 0 .4 101.8.4 226.2-.2 183.6.1 227.6 1.1 232.9 3 15 12.7 26.5 26.8 31.8 22.7 8.4 48.3-4.3 55.4-27.5 1.7-5.6 1.8-17.3 1.8-234.6 0-125.9.2-228.8.5-228.8s22.8 22.3 50 49.6 51.4 50.9 53.8 52.6c8.6 6 22.4 8.8 32.7 6.6 5.7-1.2 15.4-6.2 19.5-10 8.7-8.1 13.1-17.5 13.8-29.5.4-8 .1-10.2-1.8-15.5-1.3-3.5-3.4-8-4.7-10.1-3.4-5.5-177.3-179.1-183.4-183.3-8.5-5.7-18.8-7.8-29.9-6.2z"/><path d="M165 469.8c-12.5 1.7-24.1 9.4-30.7 20.4-6.8 11.4-6.4-3-6 197.8.1 99.8.6 182.8 1 184.5.4 1.6 1 4.6 1.3 6.5 1.8 10.8 8.5 27.6 16.2 40.5 20.3 34.1 56.8 57.1 97.2 61.2 8.5.8 527.5.8 536.3-.1 47.4-4.6 89.6-36.5 106.6-80.5 3.2-8.2 5.8-17.2 6.7-22.6.3-1.7.8-4.1 1.2-5.5.3-1.4.7-84.2.9-184 .2-199.8.6-186.9-6-197.8-7.5-12.4-19.8-19.8-34.1-20.6-19.7-1-36.5 10.8-43 30.4-1.8 5.2-1.9 13.9-2.1 183.5-.2 193.7.3 179.2-5.5 190.4-2.8 5.6-11.7 14.3-17.5 17.1-10.9 5.3 4.8 5-276 4.9-283.6 0-266.4.3-276.1-5.4-9-5.3-17.8-16.4-20.6-26-.9-3-1.2-48.6-1.4-182l-.1-178-2.3-6c-4-10.4-9.3-17.2-18-22.7-7.4-4.7-19.1-7.2-28-6z"/></svg>